<svg height="9" viewBox="0 0 77 8" fill="none" xmlns="http://www.w3.org/2000/svg">
    <path
        d="M2.85693 7.80874L4.10609 7.52483V0.337685H2.49234C1.95777 0.359187 1.44331 0.547372 1.02103 0.875871C0.598752 1.20437 0.289802 1.65673 0.137465 2.16959H0V-0.00598145H10.4894V2.16959H10.3459C10.1936 1.65673 9.88463 1.20437 9.46235 0.875871C9.04007 0.547372 8.52561 0.359187 7.99103 0.337685H6.35338V7.52782L7.60553 7.81173V7.99402H2.85693V7.80874Z"
        fill="white" />
    <path
        d="M19.3082 0V0.182294L20.5603 0.478147V3.60702H15.6892V0.478147L16.9413 0.182294V0H12.1868V0.182294L13.4389 0.478147V7.53082L12.1868 7.81771V8H16.9413V7.81771L15.6892 7.53082V3.99552H20.5603V7.53082L19.3082 7.81771V8H24.0657V7.81771L22.8136 7.53082V0.478147L24.0657 0.182294V0H19.3082Z"
        fill="white" />
    <path
        d="M25.8408 7.80875L27.09 7.50991V0.490113L25.8408 0.191271V0.00897217H34.8061V2.63879H34.6716C34.3877 1.64962 33.7362 0.352639 31.7579 0.352639H29.3462V3.57117H30.6671C31.9073 3.57117 32.3167 2.70752 32.499 2.07696H32.6365V5.38813H32.499C32.3167 4.7755 31.9193 3.92082 30.691 3.90887H29.3582V7.58462L30.1202 7.6653H32.0657C34.2861 7.6653 35.0123 6.1711 35.353 5.0355H35.5113V8.00599H25.8408V7.80875Z"
        fill="white" />
    <path
        d="M65.0938 -7.27456e-06H69.9978L70.0426 0.182291L68.8801 0.481133L71.9522 4.03137L74.842 0.481133L73.9784 0.182291L74.0352 -7.27456e-06H76.5275V0.182291L75.4816 0.481133L72.26 4.43182V7.53679L73.5122 7.82069V8.00298H68.6889V7.80873L69.941 7.52483V4.52147L66.4685 0.516993L65.0938 0.173326V-7.27456e-06ZM61.9978 5.46282L59.6071 1.42248L57.0699 5.46282H61.9978ZM54.0904 7.80873L55.1364 7.52483L59.3022 0.890545L59.0871 0.516993L57.6975 0.173326V-0.00897217H61.2477L65.6497 7.46208L67.0273 7.80276V7.98505H62.1024L62.0456 7.80873L63.2201 7.52483L62.2518 5.88718H56.798L55.7699 7.5338L56.6366 7.8177L56.5798 8H54.0875L54.0904 7.80873ZM46.9451 7.70713H48.7561C50.0172 7.70713 51.3501 7.2499 51.3501 5.83937C51.3501 4.11206 50.2115 3.91782 48.6874 3.91782H46.1831V7.62645L46.9451 7.70713ZM48.7561 3.54127C49.8708 3.54127 50.7793 3.24243 50.7793 1.92753C50.7793 0.663426 49.8828 0.298835 48.3676 0.298835H46.1831V3.54127H48.7561ZM42.6687 7.80873L43.9179 7.52483V0.490098L42.6687 0.191256V0.00895762H49.1177C51.2096 0.00895762 52.8174 0.648484 52.8174 1.90063C52.8174 3.08106 51.4756 3.70863 49.829 3.72058C51.7983 3.72058 53.5615 4.42285 53.5615 5.89316C53.5615 6.96002 52.3452 8.00896 49.8738 8.00896H42.6687V7.80873Z"
        fill="white" />
</svg>