<svg width="110" height="62" viewBox="0 0 110 62" fill="none" xmlns="http://www.w3.org/2000/svg">
    <path d="M46.6345 31.0637V30.9576C46.5955 29.1632 46.381 27.5908 46.0202 26.2884C46.0105 26.2498 46.0007 26.2209 45.991 26.1823C44.8112 22.121 42.0422 20.5774 37.9667 21.7158C35.4122 22.4297 33.2087 24.2433 31.5902 26.9541C30.0204 29.5973 29.1331 32.9255 29.0161 36.6107L14.9761 44.8202L14.7128 44.9649L14.8786 44.7527L37.2159 15.5514L37.3817 15.3199L37.4207 15.2716L35.5584 9.64746L4.65077 23.1918L6.50328 28.8063L28.4214 18.7831L28.4994 18.7445L28.4604 18.8024L25.2526 22.6322L0 52.75L1.96951 58.6829L2.20351 58.5478L29.3379 41.7525L29.5816 42.9487L29.6304 42.9776C30.0301 44.4343 30.6152 45.6691 31.3854 46.6531C33.0137 48.7176 35.2659 49.3639 38.0837 48.5825C38.4152 48.486 38.7369 48.3799 39.0489 48.2642C39.4487 48.158 40.0142 47.8976 40.7845 47.4442C44.1287 45.4955 45.5327 42.0129 46.1177 39.2829C46.1567 39.1285 46.1957 38.9742 46.2347 38.8102L46.2835 38.5883H46.2542C46.5857 36.7264 46.537 35.3662 46.537 35.3662L41.974 38.1735L41.935 38.3375C41.1355 41.4052 39.9264 43.0741 38.1129 43.5757C37.3427 43.788 36.6797 43.7108 36.1337 43.3539C35.5194 42.9487 35.0514 42.2059 34.7199 41.1447C34.7102 41.0386 34.6907 40.9228 34.6614 40.8071C34.5737 40.4984 34.4957 40.1897 34.4177 39.9003C34.3787 39.6977 34.3494 39.4951 34.3202 39.2829L46.6345 31.0637ZM34.2714 33.3693L34.3007 33.0702H34.2909C34.3202 32.8291 34.3592 32.5975 34.3982 32.366C34.9637 29.1536 36.2312 27.1952 38.0642 26.6743C38.8052 26.4717 39.4389 26.52 39.9557 26.8287C40.5797 27.1952 41.0185 27.9284 41.272 28.9992L34.2324 33.678C34.2519 33.5719 34.2617 33.4658 34.2714 33.3693Z" fill="#D32027"/>
    <path d="M56.5503 4.19668L56.56 43.0256L61.8543 41.5496L61.8446 2.7207L56.5503 4.19668Z" fill="#D32027"/>
    <path d="M48.4382 6.36758L48.448 45.2833L53.752 43.8073L53.7423 4.8916L48.4382 6.36758Z" fill="#D32027"/>
    <path d="M81.2666 21.3108C81.2276 19.5165 81.0131 17.9537 80.6524 16.6417C80.6426 16.6128 80.6426 16.5935 80.6329 16.5645L80.6231 16.5356C79.4434 12.4742 76.6743 10.9307 72.5988 12.069C70.7073 12.5996 68.9621 13.7669 67.5386 15.4551C66.1931 17.0565 65.14 19.121 64.477 21.4652L64.4673 21.4555L64.3503 21.9186C63.8725 23.7708 63.6288 25.7677 63.6288 27.8611C63.6288 31.9707 64.4088 34.9709 66.0175 37.0064C67.0511 38.3184 68.3381 39.0612 69.8591 39.2252C70.0736 39.2445 70.2978 39.2638 70.5221 39.2638C70.7853 39.2638 71.0486 39.2445 71.3216 39.2155C71.7701 39.1673 72.2381 39.0708 72.7256 38.9358C75.2508 38.2315 77.2204 36.8038 78.6634 34.6236C79.7554 33.0511 80.3794 31.2857 80.7401 29.7422C80.7889 29.5589 80.8376 29.366 80.8864 29.1731L80.9351 28.9512H80.9059C81.2666 27.0025 81.2179 25.5555 81.2179 25.5555L76.6354 28.3627L76.6159 28.5364H76.6061L76.5671 28.7004C75.7676 31.7681 74.5586 33.437 72.7451 33.9387C72.5598 33.9869 72.3843 34.0255 72.2186 34.0448C72.1893 34.0448 72.1601 34.0544 72.1211 34.0544C72.0333 34.0641 71.9456 34.0641 71.8481 34.0641C71.8286 34.0641 71.8188 34.0641 71.7993 34.0641H71.7701C71.7506 34.0641 71.7311 34.0641 71.7213 34.0641H71.7116C71.6921 34.0641 71.6726 34.0641 71.6531 34.0544H71.6433C71.6238 34.0544 71.6043 34.0544 71.5946 34.0448H71.5653C71.5458 34.0448 71.5361 34.0448 71.5166 34.0351H71.5068C71.4873 34.0351 71.4678 34.0255 71.4386 34.0255C71.3996 34.0158 71.3508 34.0062 71.3118 33.9869C71.2728 33.9772 71.2338 33.958 71.1948 33.9483C71.1753 33.9387 71.1461 33.929 71.1168 33.9194L71.0778 33.9097C71.0486 33.9001 71.0193 33.8808 70.9901 33.8711L70.9706 33.8615C69.9468 33.3502 69.2448 31.9032 68.9426 29.6651L81.2666 21.4459V21.3108ZM68.8743 24.0313C68.8841 23.9251 68.8938 23.819 68.9036 23.7225L68.9328 23.4331H68.9231C68.9523 23.192 68.9913 22.9604 69.0303 22.7193C69.5958 19.5068 70.8633 17.5389 72.6963 17.0276C73.4373 16.825 74.0711 16.8732 74.5878 17.1819C75.2118 17.5485 75.6506 18.2817 75.9041 19.3525L68.8743 24.0313Z" fill="#D32027"/>
    <path d="M104.442 13.95C101.829 13.2747 101.079 12.7055 101.079 11.4032C101.079 10.0623 101.888 8.93359 103.097 8.59595C104.306 8.2583 105.203 8.7503 105.837 10.1105L105.963 10.3903L109.405 6.31927L109.347 6.20351C108.099 3.83036 105.729 2.92355 102.853 3.72424C99.0312 4.78541 96.3596 8.4416 96.3596 12.6091C96.3596 16.2653 97.9684 18.2139 101.732 19.1401C104.247 19.7864 105.144 20.5967 105.144 22.2367C105.144 23.9635 104.286 25.2273 102.853 25.6324C102.249 25.8061 101.732 25.7482 101.293 25.4781C100.562 25.0247 100.035 23.9539 99.7234 22.2946L99.6649 21.957L95.5309 25.4492L95.5504 25.5649C95.9599 27.7451 96.8959 29.3465 98.2707 30.1954C99.0409 30.6681 99.9184 30.9093 100.903 30.9093C101.547 30.9093 102.229 30.8129 102.96 30.6103C105.037 30.0315 106.802 28.7966 108.069 27.0312C109.327 25.2755 110 23.1242 110 20.809C110 17.0081 108.333 14.9629 104.442 13.95Z" fill="#D32027"/>
    <path d="M92.6839 6.47336C90.6071 7.05217 88.9496 8.78862 87.9356 11.4126V8.20016L82.9436 9.58932L82.9534 35.6746L87.9454 34.2855V22.2172C87.9454 16.5544 89.6224 12.4255 92.2159 11.702C93.0446 11.4705 93.8149 11.4801 94.5754 11.7213L96.6034 6.647C95.5699 6.18395 93.8442 6.15501 92.6839 6.47336Z" fill="#D32027"/>
</svg>
